<?xml version="1.0" encoding="UTF-8" standalone="no"?>
<!-- Created with Inkscape (http://www.inkscape.org/) -->

<svg
   width="1920"
   height="1080"
   viewBox="0 0 507.99998 285.75"
   version="1.1"
   id="svg1"
   sodipodi:docname="wallpaper.svg"
   inkscape:version="1.4.2 (ebf0e940d0, 2025-05-08)"
   xmlns:inkscape="http://www.inkscape.org/namespaces/inkscape"
   xmlns:sodipodi="http://sodipodi.sourceforge.net/DTD/sodipodi-0.dtd"
   xmlns="http://www.w3.org/2000/svg"
   xmlns:svg="http://www.w3.org/2000/svg">
  <sodipodi:namedview
     id="namedview1"
     pagecolor="#ffffff"
     bordercolor="#000000"
     borderopacity="0.25"
     inkscape:showpageshadow="2"
     inkscape:pageopacity="0.0"
     inkscape:pagecheckerboard="0"
     inkscape:deskcolor="#d1d1d1"
     inkscape:document-units="px"
     inkscape:zoom="0.47685563"
     inkscape:cx="223.33804"
     inkscape:cy="760.18815"
     inkscape:window-width="2560"
     inkscape:window-height="1008"
     inkscape:window-x="0"
     inkscape:window-y="0"
     inkscape:window-maximized="1"
     inkscape:current-layer="layer2" />
  <defs
     id="defs1" />
  <g
     inkscape:groupmode="layer"
     id="layer2"
     inkscape:label="Layer 2"
     transform="translate(-3.224776e-6)">
    <rect
       style="fill:#11111b;fill-opacity:1;stroke-width:0.893539;stroke-linecap:round;paint-order:fill markers stroke"
       id="rect3"
       width="411.70023"
       height="285.75"
       x="3.224776e-06"
       y="-8.6736174e-19" />
    <ellipse
       style="fill:#181825;stroke-width:1.032;stroke-linecap:round;paint-order:fill markers stroke;fill-opacity:1"
       id="path1"
       cx="373.1366"
       cy="150.64177"
       rx="60.756069"
       ry="62.42062" />
    <rect
       style="fill:#181825;fill-opacity:1;stroke-width:1.12637;stroke-linecap:round;paint-order:fill markers stroke"
       id="rect4"
       width="100.42784"
       height="285.75"
       x="407.57214"
       y="0" />
    <rect
       style="fill:#181825;fill-opacity:1;stroke-width:0.284055;stroke-linecap:round;paint-order:fill markers stroke"
       id="rect4-2"
       width="43.278294"
       height="42.170864"
       x="378.17728"
       y="218.40921" />
  </g>
  <g
     inkscape:label="Layer 1"
     inkscape:groupmode="layer"
     id="layer1">
    <g
       id="g1"
       transform="matrix(0.6999201,-0.18768869,0.18768869,0.6999201,148.32097,42.779042)">
      <path
         id="use3"
         d="m 151.39209,29.773153 -15.15753,26.69195 c 8.50858,14.90468 17.00389,29.81687 25.50738,44.724437 -17.14117,-0.0456 -34.28221,-0.0979 -51.42338,-0.13848 -10.056,17.93146 -20.121387,35.85764 -30.183427,53.7857 77.519557,0.002 155.039107,0.005 232.558657,0.007 -10.31004,-17.88531 -20.62947,-35.76525 -30.9454,-53.64716 -19.48275,-0.0349 -38.96536,-0.0791 -58.44796,-0.11797 -13.52875,-23.762227 -27.06393,-47.520657 -40.58865,-71.284957 -9.36843,0.009 -31.31969,-0.0215 -31.31969,-0.0215 z m 266.02593,74.762417 c -38.26423,66.6855 -76.51426,133.38371 -114.78305,200.06842 20.56338,-0.0483 41.12675,-0.10725 61.69013,-0.15242 9.78199,-16.96881 19.55848,-33.94076 29.33833,-50.91077 27.20682,0.0871 54.41378,0.18218 81.62061,0.26329 5.18157,-9.04396 10.35589,-18.09208 15.53866,-27.13532 -5.08638,-8.88258 -10.17813,-17.76213 -15.25459,-26.65039 -17.07884,-0.0389 -34.15754,-0.0885 -51.23638,-0.13137 8.60565,-14.91323 17.21745,-29.8228 25.81908,-44.7383 -10.40228,-17.75339 -20.80857,-35.50451 -31.2087,-53.25921 z M 177.5022,223.80766 c -9.71952,17.05461 -19.43757,34.1101 -29.16513,51.16015 9.71523,16.99973 19.41947,34.00564 29.13054,51.00775 -13.67808,23.68171 -27.3693,47.35582 -41.03907,71.04229 5.18826,9.0389 10.38336,18.0738 15.58021,27.10762 10.20655,0.002 20.41323,0.003 30.61991,0.007 8.56838,-14.84277 17.13394,-29.68708 25.70124,-44.53044 8.51381,14.94054 17.02883,29.88044 25.54198,44.82148 20.48495,-0.18366 40.96963,-0.38072 61.45458,-0.5684 C 256.5559,356.27774 217.79739,288.69352 179.03313,221.11256 Z M 294.79989,29.780083 c -20.13842,0.18124 -40.27683,0.3763 -60.41538,0.56116 38.77057,67.57729 77.52907,135.161507 116.2932,202.742467 10.22572,-17.95532 20.45895,-35.9063 30.69619,-53.85499 -9.71523,-16.99972 -19.41947,-34.00564 -29.13054,-51.00774 13.67808,-23.68172 27.3693,-47.355847 41.03908,-71.042307 -5.18827,-9.03884 -10.38337,-18.07375 -15.58022,-27.10761 -10.20655,-0.002 -20.41323,-0.005 -30.61991,-0.007 -8.56838,14.84274 -17.13394,29.68711 -25.70124,44.53047 -8.51381,-14.94056 -17.02883,-29.88045 -25.54197,-44.82142 -0.34587,0.002 -0.69308,0.005 -1.03894,0.007 z M 223.85462,149.56482 c -19.53811,0.0456 -39.07622,0.10188 -58.61419,0.14545 -9.78186,16.96655 -19.55849,33.93612 -29.33834,50.90383 -27.20696,-0.0845 -54.413787,-0.17749 -81.620747,-0.25631 -5.18129,9.04178 -10.35602,18.08733 -15.53852,27.12839 5.08638,8.88259 10.17813,17.76212 15.25459,26.65038 17.0787,0.0389 34.15754,0.0885 51.236237,0.13138 -8.605507,14.91321 -17.217447,29.8228 -25.819067,44.73829 10.4024,17.75339 20.808697,35.5045 31.208817,53.25921 38.77285,-67.56705 77.53042,-135.14291 116.30702,-202.70783 -1.02554,0.002 -2.05054,0.005 -3.0758,0.007 z m -5.5836,151.97718 c 9.79901,16.99666 19.60915,33.98697 29.41447,50.98004 19.48033,0.0375 38.96066,0.0845 58.44099,0.12467 13.53102,23.75976 27.06875,47.5157 40.59562,71.2778 10.39141,-0.007 20.78269,-0.0268 31.1741,-0.0268 5.09805,-8.87925 10.19676,-17.7581 15.29615,-26.6366 -8.50858,-14.90469 -17.0039,-29.81686 -25.50739,-44.72442 17.14345,0.0456 34.2869,0.0979 51.43036,0.13848 10.05385,-17.93132 20.11616,-35.85798 30.17645,-53.7857 -77.51727,-0.002 -155.03454,-0.005 -232.55182,-0.007 l 1.53107,2.6602 z"
         style="fill:#313244;fill-opacity:1;stroke-width:3.54691"
         sodipodi:nodetypes="ccccccccccccccccccccccccccccccccscccccccccsscccccccccccccccccccccccc" />
      <path
         d="m 225.94671,304.20219 24.81458,42.99947 58.4619,0.12468 40.59562,71.27786 25.00159,-0.0268 12.241,-21.31616 -28.54163,-50.06557 57.47805,0.15939 24.21187,-43.14495 z"
         style="clip-rule:evenodd;display:inline;fill:#181825;fill-opacity:1;fill-rule:evenodd;stroke-width:3.54691"
         id="path5" />
      <path
         d="m 217.72366,154.89905 -49.40744,0.13137 -29.33833,50.90384 -81.620617,-0.25632 -12.4835,21.80801 12.22022,21.33001 57.346407,0.15242 -28.874087,50.0171 25.015537,42.6808 z"
         style="clip-rule:evenodd;display:inline;fill:#11111b;fill-opacity:1;fill-rule:evenodd;stroke-width:3.54691"
         id="path4" />
      <path
         d="m 292.76316,35.114313 -49.23423,0.4641 107.128,186.781337 24.58602,-43.1311 -29.13041,-51.02852 41.03894,-71.021517 -12.52506,-21.78724 -24.46818,-0.007 -28.79795,49.91319 z"
         style="clip-rule:evenodd;display:inline;fill:#181825;fill-opacity:1;fill-rule:evenodd;stroke-width:3.54691"
         id="path3" />
      <path
         d="m 179.05391,231.83672 -24.58589,43.13109 29.13041,51.02853 -41.03894,71.02151 12.52506,21.7873 24.46818,0.007 28.79795,-49.91311 28.597,50.18337 49.23437,-0.46383 z"
         style="clip-rule:evenodd;display:inline;fill:#11111b;fill-opacity:1;fill-rule:evenodd;stroke-width:3.54691"
         id="path8" />
      <path
         d="m 418.98367,112.48842 -107.14195,186.77441 49.40758,-0.13138 29.33819,-50.91076 81.62075,0.26329 12.48351,-21.81494 -12.22022,-21.33001 -57.34655,-0.15242 28.87409,-50.01712 z"
         style="clip-rule:evenodd;display:inline;fill:#181825;fill-opacity:1;fill-rule:evenodd;stroke-width:3.54691"
         id="path7" />
      <path
         d="m 179.61507,35.114313 -25.00857,0.0348 -12.24099,21.31615 28.54163,50.065597 -57.47122,-0.15939 -24.218707,43.14495 214.262987,0.007 h 0.007 l -24.81458,-43.0064 -58.46874,-0.11797 z"
         style="clip-rule:evenodd;display:inline;fill:#11111b;fill-opacity:1;fill-rule:evenodd;stroke-width:3.54691"
         id="path6" />
    </g>
  </g>
</svg>
